<?xml version="1.0" standalone="no"?>
<!DOCTYPE svg PUBLIC "-//W3C//DTD SVG 20010904//EN"
 "http://www.w3.org/TR/2001/REC-SVG-20010904/DTD/svg10.dtd">
<svg version="1.0" xmlns="http://www.w3.org/2000/svg"
 width="888.000000pt" height="888.000000pt" viewBox="0 0 888.000000 888.000000"
 preserveAspectRatio="xMidYMid meet">
<metadata>
Created by potrace 1.14, written by Peter Selinger 2001-2017
</metadata>
<g transform="translate(0.000000,888.000000) scale(0.100000,-0.100000)"
fill="#000000" stroke="none">
<path d="M7613 8090 c-51 -50 -93 -88 -93 -85 0 3 -37 -22 -81 -55 -45 -34
-100 -72 -123 -85 -95 -55 -269 -115 -581 -198 -146 -40 -365 -99 -661 -180
-251 -69 -336 -87 -416 -87 -76 0 -168 22 -223 54 -22 13 -72 42 -111 65 -39
23 -83 43 -98 45 -16 2 -46 21 -72 47 l-44 43 -53 -50 c-28 -27 -69 -58 -91
-69 -75 -38 -243 -213 -250 -260 -1 -9 -34 -48 -72 -88 -39 -40 -76 -80 -83
-89 -12 -16 7 -38 161 -198 129 -133 178 -190 188 -220 7 -21 17 -37 21 -34 5
3 9 1 9 -4 0 -5 4 -65 10 -133 5 -68 17 -250 25 -404 8 -154 24 -417 36 -585
26 -378 24 -443 -18 -533 -59 -124 -154 -200 -309 -246 -76 -22 -301 -40 -764
-61 -135 -6 -360 -18 -500 -25 -140 -8 -388 -22 -550 -30 -162 -8 -469 -25
-682 -36 -212 -12 -391 -18 -397 -15 -12 8 -157 47 -184 50 -10 1 -89 73 -175
159 -87 86 -162 157 -168 157 -6 0 -42 -28 -79 -62 -37 -34 -74 -63 -82 -64
-72 -11 -269 -198 -322 -306 -18 -37 -44 -76 -57 -89 -32 -30 -30 -49 6 -84
16 -15 32 -40 35 -55 3 -15 44 -85 90 -155 85 -129 117 -195 137 -289 12 -56
6 -517 -11 -921 -6 -126 -15 -358 -21 -515 -26 -666 -31 -717 -88 -842 -35
-77 -130 -224 -167 -258 -15 -14 -45 -47 -67 -73 l-41 -48 27 -28 c15 -15 26
-39 26 -54 0 -149 279 -427 428 -427 17 0 38 -10 52 -25 13 -14 28 -25 35 -25
6 0 35 25 65 56 77 78 270 221 365 271 122 63 99 56 1280 348 605 149 721 176
860 195 176 25 210 32 350 81 336 116 503 154 640 146 50 -3 110 -12 135 -21
69 -25 234 -125 306 -184 l64 -53 50 47 c28 26 60 48 71 49 62 5 256 191 308
297 18 36 50 83 73 104 71 70 75 60 -71 210 -117 119 -136 143 -171 220 -68
145 -70 172 -70 879 0 661 4 724 50 847 19 52 74 142 135 223 17 21 23 35 15
31 -8 -5 27 34 78 85 50 52 92 99 92 104 0 6 -34 44 -75 85 -41 41 -75 78 -75
83 0 4 -30 49 -66 100 -82 113 -137 228 -158 327 -15 78 -45 418 -47 550 -1
61 -3 69 -9 40 -5 -22 -7 4 -5 70 3 74 1 95 -5 70 -6 -25 -8 -3 -5 75 1 61 0
92 -4 70 -3 -22 -7 90 -8 248 -2 232 0 302 13 357 19 86 92 208 154 261 49 41
59 44 640 202 52 14 154 42 225 62 154 43 357 98 475 130 47 13 146 40 220 60
74 21 167 45 206 55 l72 17 188 -182 189 -182 164 156 c161 153 306 298 371
374 l33 38 -27 28 c-16 17 -26 38 -26 57 0 16 -16 63 -35 103 -28 58 -55 93
-128 166 -101 99 -180 147 -249 151 -27 1 -48 10 -67 28 -15 14 -31 26 -37 26
-5 0 -51 -41 -101 -90z m-2286 -1937 c-3 -10 -5 -2 -5 17 0 19 2 27 5 18 2
-10 2 -26 0 -35z m-604 -1790 c-7 -2 -21 -2 -30 0 -10 3 -4 5 12 5 17 0 24 -2
18 -5z m-14 -18 c77 -19 168 -65 215 -111 37 -36 91 -124 101 -166 4 -16 11
-25 16 -22 5 3 9 -250 8 -608 -1 -337 -5 -599 -9 -583 -4 18 -8 -43 -9 -145
-2 -260 -26 -333 -153 -456 l-73 -71 -550 -136 c-302 -75 -813 -201 -1135
-281 -1117 -276 -1356 -335 -1465 -361 l-109 -26 -102 103 -102 103 13 325 c8
179 19 469 25 645 21 624 50 1351 55 1391 5 34 17 52 83 116 61 60 91 81 142
101 141 55 -11 43 1775 137 319 17 693 37 830 44 339 18 370 18 444 1z m698
-1437 c-1 -194 -2 -36 -2 352 0 388 1 546 2 353 2 -194 2 -512 0 -705z"/>
<path d="M3197 3783 c-4 -3 -7 -53 -7 -109 0 -90 -3 -106 -21 -126 -43 -48
-110 -138 -102 -138 4 0 -5 -9 -22 -20 -120 -79 -195 -211 -196 -343 -1 -214
145 -379 364 -412 99 -15 241 37 323 119 150 151 159 400 19 555 -19 21 -35
47 -35 57 0 35 -12 63 -29 67 -9 3 -1 5 17 6 l32 1 0 175 0 175 -168 0 c-93 0
-172 -3 -175 -7z"/>
<path d="M4467 2983 c-4 -3 -7 -82 -7 -175 l0 -168 173 2 172 3 3 150 c1 83 0
160 -3 173 -5 22 -8 22 -169 22 -89 0 -166 -3 -169 -7z"/>
<path d="M1932 2468 l3 -173 170 0 170 0 3 173 2 172 -175 0 -175 0 2 -172z"/>
<path d="M3424 8027 c-2 -7 -3 -85 -2 -172 l3 -160 173 -3 172 -2 0 175 0 175
-170 0 c-130 0 -172 -3 -176 -13z"/>
<path d="M1485 7826 c-104 -33 -188 -105 -235 -201 -33 -67 -40 -199 -14 -282
57 -189 177 -303 353 -335 114 -21 259 30 345 122 132 142 150 344 45 504 -52
78 -176 166 -234 166 -14 0 -24 4 -21 9 17 27 -167 40 -239 17z m212 -12 c-3
-3 -12 -4 -19 -1 -8 3 -5 6 6 6 11 1 17 -2 13 -5z"/>
<path d="M2160 6720 l0 -170 175 0 175 0 0 170 0 170 -175 0 -175 0 0 -170z"/>
<path d="M6793 6313 l-33 -4 0 -170 0 -169 169 0 168 0 7 38 c3 20 6 96 6 168
0 111 -2 133 -16 138 -17 6 -247 6 -301 -1z"/>
<path d="M2737 6193 c-13 -12 -8 -318 5 -331 13 -13 172 -16 277 -6 l61 7 0
168 0 169 -168 0 c-93 0 -172 -3 -175 -7z"/>
<path d="M1017 5854 c-4 -4 -7 -83 -7 -176 l0 -168 175 0 175 0 -2 173 -3 172
-166 3 c-91 1 -168 -1 -172 -4z"/>
<path d="M3887 5503 c-10 -9 -8 -315 1 -331 7 -9 48 -12 173 -10 l164 3 3 173
2 172 -168 0 c-93 0 -172 -3 -175 -7z"/>
<path d="M7680 4880 l0 -170 169 0 169 0 7 95 c4 52 4 129 0 170 l-7 75 -169
0 -169 0 0 -170z"/>
<path d="M6760 4190 l0 -170 173 2 172 3 3 145 c1 80 0 155 -3 168 -5 22 -7
22 -175 22 l-170 0 0 -170z"/>
<path d="M7216 3208 c-167 -22 -305 -157 -337 -331 -44 -240 148 -469 391
-467 186 1 239 20 331 116 68 72 100 149 102 244 0 79 -10 133 -25 124 -7 -5
-9 0 -6 14 4 12 3 22 -2 22 -4 0 -15 20 -25 46 -9 25 -42 72 -72 104 -93 101
-219 146 -357 128z"/>
<path d="M6296 1587 c-4 -73 -4 -152 0 -175 l7 -42 167 0 167 0 7 46 c3 26 3
104 -1 175 l-6 129 -167 0 -167 0 -7 -133z"/>
<path d="M3884 1367 c-2 -7 -3 -85 -2 -172 l3 -160 173 -3 172 -2 0 175 0 175
-170 0 c-130 0 -172 -3 -176 -13z"/>
<path d="M7560 1091 l0 -169 103 -7 c56 -4 134 -5 172 -3 l70 3 3 173 2 172
-175 0 -175 0 0 -169z"/>
</g>
</svg>
